 
http://desibbrg.org/images/66952052392581364616.gif
 
http://desibbrg.org/images/88149303174085807178_thumb.jpg
 
http://desibbrg.org/images/68907274736872030689.jpg
 
http://desibbrg.org/images/38770208102308219617.jpg
 
http://desibbrg.org/images/45409152291001446207.jpg
 
http://desibbrg.org/images/82220672005913658988.jpg

Media Info - 
General
Complete name                    : Tukaram.mpg
Format                           : MPEG-PS
File size                        : 867 MiB
Duration                         : 2h 36mn
Overall bit rate                 : 775 Kbps
Writing library                  : encoded by TMPGEnc Video Mastering Works 5 Version. 5.0.5.32

Video
ID                               : 224 (0xE0)
Format                           : MPEG Video
Format version                   : Version 1
Format settings, BVOP            : Yes
Format settings, Matrix          : Default
Duration                         : 2h 36mn
Bit rate mode                    : Variable
Bit rate                         : 700 Kbps
Width                            : 352 pixels
Height                           : 288 pixels
Display aspect ratio             : 4:3
Frame rate                       : 25.000 fps
Standard                         : PAL
Color space                      : YUV
Bit depth                        : 8 bits
Scan type                        : Progressive
Compression mode                 : Lossy
Bits/(Pixel*Frame)               : 0.276
Stream size                      : 778 MiB (90%)
Writing library                  : TMPGEnc Video Mastering Works 5 Version. 5.0.5.32

Audio
ID                               : 192 (0xC0)
Format                           : MPEG Audio
Format version                   : Version 1
Format profile                   : Layer 2
Duration                         : 2h 36mn
Bit rate mode                    : Constant
Bit rate                         : 64.0 Kbps
Channel(s)                       : 2 channels
Sampling rate                    : 48.0 KHz
Compression mode                 : Lossy
Stream size                      : 71.6 MiB (8%)

Ripper - Dexter Morgan 

Seeding 24x7... Extreme Seeding...


Enjoy!
